<svg id="Layer_1" data-name="Layer 1" xmlns="http://www.w3.org/2000/svg" viewBox="0 0 257.7 616.56"><defs><style>.cls-1{fill:#bbb;}.cls-2{fill:#494949;}</style></defs><title>hand-down</title><path class="cls-1" d="M104.3,176.35a2.69,2.69,0,0,0,1.65-3.91c-2.66-4.19-3.26-7.53-2.06-12.52s4.4-10.28,9.46-5.77c3.26,2.91,1.76,7-.78,9.75a10.36,10.36,0,0,1-3.87,3,1.69,1.69,0,0,1-.73.11,6.62,6.62,0,0,1,.09-2.79,1,1,0,0,0-1.84-.75c-3.6,6.4.76,10.45,7.26,7.4,7.18-3.37,11.21-12.86,6.46-19.7-6.42-9.26-17.48-7-21.74,2.69C95.84,159.17,93.13,178.69,104.3,176.35Z" transform="translate(-54.73 -40.25)"/><path class="cls-1" d="M108.85,127.28c1.89.34,3.82-1.69,3-3.37,3.91.31,8.29-3.51,10.22-8.11,2.73-6.49.49-17.63-7.8-18.79C98.8,94.85,92,124.21,108.85,127.28Zm2.92-23.71c4-1.58,5.81,4.42,5.65,7.33a12.56,12.56,0,0,1-2.93,6.93c-2.07,2.44-4,1.75-5.93-.5a1.44,1.44,0,0,0-2.16.19,8.35,8.35,0,0,1-.63-5.13C106.35,109.17,108.53,104.87,111.78,103.58Z" transform="translate(-54.73 -40.25)"/><path class="cls-1" d="M243.35,58.39c5,8.37,5.66,17.93,5.9,27.51.27,10.37-.47,20.75-1,31.1-.16,3.48-.26,7-.34,10.44a2.55,2.55,0,0,0-2.52-1c-7.13,1.06-14.46-.86-21.45,1.1-2.31.65-1.38,4,.93,3.56,7.24-1.41,14.64,2.43,21.76.09a2.7,2.7,0,0,0,1.21-.78c-.12,6.33-.19,12.66-.38,19a2.4,2.4,0,0,0-.43-.15c-10.31-2.38-22.57-6.45-32.78-1.81a1.48,1.48,0,0,0,.73,2.75c10.78-.58,20.81,3.05,31.42,4a2.24,2.24,0,0,0,.92-.1q-.2,5.76-.42,11.52a2.46,2.46,0,0,0-.78,0c-14.67,1.67-28.28-6-42.93-3.88-1.38.2-1.06,2.49.31,2.41,14.26-.85,29.2,11,43.22,6.56,0,.52,0,1-.06,1.55-.18,4.7-.86,9.9-.49,14.74-9.14-1.87-19.34-1.55-28.47-2.3-11.3-.92-22.59-2-33.93-2.2-1.56,0-1.94,2.48-.35,2.75,10.57,1.76,21.21,2.83,31.87,4,10.85,1.15,23,4.05,33.85,3.1,2.43-.21,3.1-3.52.77-4.37,1.16-4.37,1.24-9.38,1.69-13.72.79-7.48,1.3-15,1.75-22.49.74-12.43.91-24.88,1.79-37.3.79-11.12,1.58-22.23,1.19-33.38-.31-8.68-.93-20.3-7.29-27C246.25,51,241.23,54.87,243.35,58.39Z" transform="translate(-54.73 -40.25)"/><path class="cls-1" d="M192.05,174.68c8.89,2.37,17.88,4.59,26.84,6.68,7.61,1.78,17.25,4.34,24.77,1.21,1.89-.79,1.44-4.13-.58-4.42-8.22-1.17-16.4-.9-24.65-2.53-8.51-1.67-17.25-4.23-26-3.88A1.5,1.5,0,0,0,192.05,174.68Z" transform="translate(-54.73 -40.25)"/><path class="cls-1" d="M242.69,110.13c-4.3,2-8.37,3.47-13.16,3.6a2.14,2.14,0,0,0,0,4.27c5.68.3,11.39-.63,15.93-4.23C247.63,112,244.88,109.1,242.69,110.13Z" transform="translate(-54.73 -40.25)"/><path class="cls-1" d="M240.52,71.37l-1.42,1.05a1.53,1.53,0,0,0-.56,2,1.51,1.51,0,0,0,2.36.32l1.31-1.21C243.33,72.51,241.79,70.42,240.52,71.37Z" transform="translate(-54.73 -40.25)"/><path class="cls-1" d="M85.65,350.43c-2.15-14.72,4.45-29.44,9.34-43,6-16.72,10.82-34.22,15.43-51.4,1.05-3.93-5.23-5.56-6.09-1.6a520.88,520.88,0,0,1-14.65,53.39c-4.53,13.71-10.69,28.66-6.44,43.21A1.25,1.25,0,0,0,85.65,350.43Z" transform="translate(-54.73 -40.25)"/><path class="cls-1" d="M242.24,421.27c-.4-8.1-2-16.63,3.15-23.57,2.3-3.08-2.69-6.64-5.27-4-5,5.08-5.19,12.32-4.8,19,.53,9,1.17,17.51.73,26.54-.52,10.39-1.18,20.74-.55,31.15.61,10.09,2.27,20.13,3.61,30.14,2.63,19.7,1.74,38.65.07,58.36-1.48,17.52-3.18,36,2.16,53a1.2,1.2,0,0,0,2.32-.61c-3.81-16.4-1.83-33.86-.17-50.42,1.83-18.27,3.53-35.93,1.67-54.29-2-19.66-4.9-38.63-3.86-58.46C241.77,439.21,242.68,430.21,242.24,421.27Z" transform="translate(-54.73 -40.25)"/><path class="cls-1" d="M269.83,386.61c-5-.46-9.56,1.39-13.74,4-4,2.46-9.46,6-11.25,10.38-.65,1.61,1.28,3.24,2.79,2.79,3.37-1,5.73-4.15,8.33-6.41,4-3.43,8.58-6.35,13.87-7A1.87,1.87,0,0,0,269.83,386.61Z" transform="translate(-54.73 -40.25)"/><path class="cls-1" d="M250.34,409.39a27.21,27.21,0,0,0,9.51-2.34c1.83-.74,1.82-3.72-.47-3.67a34.36,34.36,0,0,0-9.66,1.17C247.13,405.38,247.45,409.45,250.34,409.39Z" transform="translate(-54.73 -40.25)"/><path class="cls-1" d="M255.76,423.23c1.74-.22,3.43-.66,5.15-1,2-.37,1.49-3.4-.44-3.43-.68,0-1.36,0-2,0a2.21,2.21,0,0,0-2.29-.77c-1.32.37-2.91.75-3.33,2.26C252.27,422.24,254.11,423.43,255.76,423.23Zm.47-.51h0C256.17,422.75,256.18,422.74,256.23,422.72Z" transform="translate(-54.73 -40.25)"/><path class="cls-1" d="M191.73,458.11c1.35-2-1.21-3.72-3-3-4.75,2-7.76,8.73-9.47,13.28-.69,1.82,1.92,3.07,3.16,1.81a45.87,45.87,0,0,0,4.54-6.1C188.47,462,190.3,460.25,191.73,458.11Z" transform="translate(-54.73 -40.25)"/><path class="cls-1" d="M135.51,450.83a15,15,0,0,0-7.45,7.67c-.61,1.6,1.62,3.36,3,2.32a71.45,71.45,0,0,1,7.28-5C141.59,454,138.8,449.19,135.51,450.83Z" transform="translate(-54.73 -40.25)"/><path class="cls-1" d="M232.84,207.62a3.28,3.28,0,0,0-6-.78,14.22,14.22,0,0,0-1.54,5c-7.24-2.2-15.45-2.92-22.25-3.83a228.59,228.59,0,0,0-34.2-1.82c-1.75,0-2.25,2.86-.4,3.13,10.34,1.51,20.72,2.71,31,4.53,5.79,1,11.54,2.16,17.23,3.62,2.82.72,5.56,1.75,8.31,2.71,0,1,0,2,0,2.85,0,.53,0,1.07,0,1.6-6-.22-12,.2-18-.06-7-.29-13.85-.68-20.83-.11a1.42,1.42,0,0,0,0,2.84c12.54.71,26.66,5.42,39.19,2.68a36.66,36.66,0,0,0,.84,4.66c-5.43-1-11.52.87-17,.47-2.06-.15-2.48,3.17-.46,3.57a58,58,0,0,0,9.51.91c3.41.1,6.77.51,10.14,0,1.34.61,3.41-.37,3.27-2a82.42,82.42,0,0,1-.18-14.54c0-.28.06-.56.1-.84a3.48,3.48,0,0,0,2.59-6.37c-.41-.27-.84-.52-1.28-.77A15.81,15.81,0,0,0,232.84,207.62Z" transform="translate(-54.73 -40.25)"/><path class="cls-1" d="M215.06,253.09A14.41,14.41,0,0,0,204,251.58a104.63,104.63,0,0,0-29.72.76c-2,.33-1.47,3.4.44,3.38,6.48-.07,13,0,19.44.33-5.12,3.24-9.87,7.38-13.7,10.13a1.27,1.27,0,0,0,1.26,2.21c5-2.6,9.78-5.74,14.8-8.37a25.12,25.12,0,0,1,14.12-2.8c-5.73,3.72-10.89,9.34-14.43,13.12a1.4,1.4,0,0,0,2,2c7.43-6.38,14.27-11.59,23.56-13.42a24,24,0,0,0,1,5.15c-7.49,2.92-13.66,10.67-15.39,18.14a1.52,1.52,0,0,0,2.94.77c2.8-7.06,8.33-10.58,14.43-13.89a58.77,58.77,0,0,0,4.55,7.66c-5.8,2.79-10.49,7.93-11.29,14.46-.21,1.69,2.39,1.87,2.84.37,1.64-5.42,6.31-8.56,11.28-10.91,1.75,2.33,3.61,4.56,5.55,6.74a34.45,34.45,0,0,0-2,3.35,1.74,1.74,0,0,0,3,1.72,24.26,24.26,0,0,1,1.63-2.18c3.71,4,7.61,7.74,11.52,11.47,8.81,8.41,17.35,17,25.49,26.09,8.59,9.57,15.22,20.84,23.92,30.22a1.08,1.08,0,0,0,1.8-1c-3.18-10.38-10.34-20-16.93-28.47a306.63,306.63,0,0,0-24.69-27.6c-5.26-5.31-10.7-10.44-15.82-15.88l.19-.17c2.12-1.85-.9-4.64-3-3l-.06,0-.48-.53c-1.17-1.32-2.22-2.65-3.23-4,.64-1.12-.2-3-1.67-2.9l-.37,0a69.48,69.48,0,0,1-8.47-17.93,3.45,3.45,0,0,0-2.22-2.26,2.73,2.73,0,0,0-.44-.21,13.83,13.83,0,0,0-9.71.3A2.27,2.27,0,0,0,215.06,253.09Z" transform="translate(-54.73 -40.25)"/><path class="cls-2" d="M77.36,68.33c-1.63,15-1.44,29.9-.74,44.92.69,14.86,1.14,29.61.42,44.48-.33,6.77-.74,13.54-1,20.32-.2,6.22-.73,13.22.72,19.39a4.46,4.46,0,0,0-1.56,6.18c2.59,4.47,6.66,5.94,11.23,6.11.06,5.79.53,11.64.23,17.47-.26,4.92-1.76,16.5,1.87,21.7-.48,2.06.33,4.41,2.8,4.73,1.29.17,2.59.3,3.88.44-2,1.76-2.05,4.81-2.79,7.33a4.24,4.24,0,0,0-1.4,1.15c-8.33,10.15-10.82,23.14-14.81,35.33a312.24,312.24,0,0,0-10.91,43c-2.26,12.82-4.39,25.64-6.7,38.45-2.16,12-5.19,25.05-3.33,37.24,1.68,11,9.12,21.74,20.85,22.6,6.16.45,12.64-3.24,16.84,3.42,3.46,5.48,5.41,11.48,9.51,16.68,5.09,6.44,11.4,11.22,19.76,12,7.51.67,14.9-3.59,20.42-8.67,1.66,2.67,3,5.59,4.45,8.34,3.14,5.92,7.59,12.26,14.35,14.3,12.63,3.82,27.12-4.32,32.8-16.09.15.78.28,1.46.37,2,1.86,10,2.57,20.31,3.23,30.49,1.16,17.92,1.21,35.86,2.07,53.79.65,13.54.19,27.11,1,40.66,1,17,1.8,38.82,12,53.23,6,8.43,14.52,9.73,23.16,4.42a.87.87,0,0,0,.12-.11c5.6-2.93,8.52-8.72,10.49-15.26,3.33-11,4.4-23.15,5-34.6,1.43-25.83,3.34-51.45,2.08-77.35-.6-12.31-1.43-24.6-1.88-36.92,2.42,2.82,5.5,4.88,9.24,5.13,9.08.61,13.27-9.35,15.22-16.57,4.48-16.62,7-33.49,12.92-49.75,9.15-25.28,29.18-50.42,21.35-78.79-4.66-16.9-19-31-31.49-42.47-13.12-12-27.22-22.74-37.7-37.25-2-2.79-4.05-6-6.82-8.14,0,0,0-.07,0-.12-.19-1.21-.43-2.13-.59-3.18a23.37,23.37,0,0,0-1.23-5.61l4.73.07a8.65,8.65,0,0,0,4.41-1.18,3.09,3.09,0,0,0,2.12-1.77c2.74-5.85,1-14.53.71-20.8-.34-7.35-1.7-16,.66-23.3,3.22-.27,6.41-.65,9.54-1.16,1.61,2,5.28,2.62,6.52-.27,9.09-21.22,5.62-47.62,5.65-70.13,0-13.33.65-26.66.62-40,0-12.46-1.86-25.37,1.06-37.66a.78.78,0,0,0-1.43-.58c-5.6,9.17-6.16,19.94-6.65,30.45-.6,12.82-1.53,25.6-1.73,38.44-.4,25.09,2.76,51.82-4.53,76.12-13.22-.44-26.45-.06-39.69-.94-15.49-1-31-2.1-46.51-2.65-15.35-.54-30.68.15-46,.56-8,.21-16,.46-24,.82-3.37.15-11.75,3.55-14.37.72,0-.1.06-.19.08-.3,1-6.14.38-12.59.59-18.82.22-6.77.65-13.54,1-20.31a363.34,363.34,0,0,0-.18-41.88c-.82-14.28-1.56-28.53-1.65-42.84,0-5.57.29-11-.45-16.58-.77-5.7-1.92-11.92-.5-17.61a.68.68,0,0,0-1.25-.51C75.94,48.11,78.32,59.48,77.36,68.33ZM226.78,263.05a4.32,4.32,0,0,0,2.75,4.67c3.14,1.2,6.57,8.39,8.55,11.07,4.18,5.66,9.32,10.54,14.46,15.32,12.54,11.65,26.18,22,37.31,35.1,10,11.75,16.48,25.07,14.19,40.67-1.77,12.08-7.32,23.36-12.52,34.27a228.51,228.51,0,0,0-15,39.62c-.16.61-.31,1.23-.47,1.84-3.74-3.64-9.46-1.71-11.88,3.06-3,5.93-3.24,13.73-2.7,20.2a.86.86,0,0,0,1.68.22c1.12-4.06,1.87-8.2,3.06-12.23a18.3,18.3,0,0,1,3-6.38c1.75-2.15,3.4-1.09,5.75-.58-1.27,5.29-2.42,10.62-3.57,15.94-1.32,6.07-2.19,12.5-5.33,17.95-4.16,7.21-9.47,0-11.69-4.59a36.3,36.3,0,0,1-2.59-7.49c.2-7.94.6-15.88.81-23.83l.07-.26a.58.58,0,0,0-.05-.47c0-.13,0-.26,0-.39.3-12.75-.38-25.39-1.25-38.1-.4-5.89-.11-11.83,3.44-16.76,2.9-4,5.76-8,8.7-12,.87-1.19-.83-2.74-2-2-8.24,5.17-15.12,8.59-17.78,18.61-2.71,10.22.26,21.84,0,32.27-.3,12.81-1.39,25.59-1.78,38.4s.21,25.76.95,38.63,1.6,26,2,39c.39,12.42-.4,24.81-.24,37.23.16,12.13,1.14,24.13.56,36.27-.54,11.14-.24,29-11.9,34.25-15.85,3.55-20.47-18.94-22.52-30.72-3.21-18.35-3.4-37.19-3.42-55.77,0-12.32-.59-24.67-1-37-.64-20.53-1.12-41.51-5-61.73-1.08-5.56-3.3-17.56-11.36-16-3.16.62-2.91,5.27,0,6,1.16.31,2.22,3.39,3.05,6.65-4.58,4.91-8.63,9.79-14.94,13-7.63,3.84-16.32,2.38-21.38-4.58-5.63-7.74-9.73-25.31-22.39-23.3-3,.47-3.06,4.67-.79,6,2.79,1.64,5.21,2.52,7.27,5-6.31,2.86-13,5.74-20,4.26-8.55-1.83-14.5-11.78-17.91-19-4.29-9.08-8.49-15.54-19.7-14.92-6.05.34-10.13,1.56-14.92-3.37-4.62-4.75-5.74-12.32-5.68-18.62.1-10.49,3-21.95,5.21-32.18,2.49-11.73,4.35-23.47,6.44-35.27a282.91,282.91,0,0,1,9.12-36.44c3.71-11.66,5.89-26,13.73-35.76a4.55,4.55,0,0,0,1-2.17c3-3.74,5.42-8.4,3.05-12,24,1.61,48.4-1.61,72.28-2.13,14.73-.32,29.49-.38,44.23,0,2.11,0,4.23.08,6.35.11A16.54,16.54,0,0,0,226.78,263.05ZM159.4,204.8c17-.24,34,.68,50.95,1.11,10.06.26,20.7.64,31.13,0-2.39,5-3.17,10.8-3.84,16.19a138.5,138.5,0,0,0-.71,15.08c0,2.91-.48,6.27-.13,9.3-1.17-.13-2.38-.18-3.5-.32-6.67-.85-13.39-1.29-20.1-1.56-14-.58-28-.54-41.94-.27-25,.49-49.78,2.34-74.8,1.47-.15-2.76-1.26-5.92-1.46-8.37-.44-5.4-.41-10.84-.7-16.25-.12-2.3-.22-7.82-1.55-11.91,4.46-.61,9-1.71,12.72-1.95C123.4,206.26,141.43,205,159.4,204.8Z" transform="translate(-54.73 -40.25)"/><path class="cls-2" d="M217.26,640.57c.52,1.19,2.27.34,2-.82-1.4-6.55-4.23-18.68,5.71-18.68,4.11,0,10.58-.23,12.24,4.54,1.21,3.47.56,7.32,1.77,10.85a.76.76,0,0,0,1.48-.19c.49-5.65,3.52-11.1-.19-16.27-3.55-4.94-11.4-4.72-16.78-4.73C211.41,615.24,214.1,633.37,217.26,640.57Z" transform="translate(-54.73 -40.25)"/><path class="cls-2" d="M216.84,573.1c2.44,2.26,6.82,1.92,9.89,1.6a30.48,30.48,0,0,0,9.79-2.71c.78-.36.2-1.41-.53-1.3a57.23,57.23,0,0,1-9.27.67c-3,0-5.66-1.2-8.57-1.45A1.88,1.88,0,0,0,216.84,573.1Z" transform="translate(-54.73 -40.25)"/><path class="cls-2" d="M215.54,506.47c5.15,2.29,11.25.25,16-2.16.79-.4.11-1.54-.67-1.18a16.3,16.3,0,0,1-7,1.58c-2.48,0-4.65-.89-7-1.43C215,502.85,213.67,505.64,215.54,506.47Z" transform="translate(-54.73 -40.25)"/></svg>