<svg id="Layer_1" data-name="Layer 1" xmlns="http://www.w3.org/2000/svg" viewBox="0 0 470.94 621.64"><defs><style>.cls-1{fill:#bbb;}.cls-2{fill:#494949;}</style></defs><title>hand-key</title><path class="cls-1" d="M81,464.81l9.22-4.05a2.54,2.54,0,0,1-2-2.64A278.45,278.45,0,0,0,86.43,422c-.29-2.49,3.95-3.05,4.37-.59,2.08,12.18,3.5,24.34,3.1,36.71a3,3,0,0,1-.26,1.14l10.49-4.6c1.85-10.7.08-21.15-2.24-31.9-2.88-13.3-6.07-26.52-12-38.83-1.15-2.39,2.25-4.46,3.6-2.1,7.28,12.81,11.11,26.65,14.68,40.85,2.25,9,5,19.27,3.51,28.68l4.62-2c2.37-4.5,1.77-10.39,1.36-15.24a155.46,155.46,0,0,0-4.37-25.54c-2.05-8-4.78-15.78-7.26-23.64s-5.37-15.65-10.18-22.37c-1-1.35,1.17-2.94,2.27-1.76,5.72,6.14,9,13.62,12.07,21.34A298.2,298.2,0,0,1,120,410.66a156.32,156.32,0,0,1,4.69,25.79,35.87,35.87,0,0,1,0,9.18l9.86-4.33c-.08-1.73-.25-3.48-.44-5.22a170.34,170.34,0,0,0-5.51-28c-2.55-9-6.24-17.64-9.79-26.31-3.4-8.29-7-16.71-11.89-24.25-.67-1,.91-2.28,1.72-1.33,6.08,7.19,10.2,15.41,14.2,23.88a239.72,239.72,0,0,1,11.76,28.26,157.28,157.28,0,0,1,6.19,29c0,.38.09.77.14,1.16l.75-.33a2.92,2.92,0,0,1,0-1.32c4-17.68-1-34.32-6.89-51-4.93-14.08-8.68-33.1-21.46-42.33-1.15-.83-.15-2.67,1.13-1.93,14.32,8.26,19.15,27.23,24.94,41.56,3.82,9.45,7.24,19,9.24,29.07,1.47,7.36,2.24,15.5.12,22.82l2.46-1.09c1.15-6.64-.17-13.1-.61-19.86-.61-9.48-1.72-18.58-4.65-27.66-2.71-8.41-6.58-16.31-10.62-24.14-3.63-7-8.28-14.2-10.34-21.89-.24-.88,1-1.68,1.6-.93,5.84,6.85,10.4,15.37,15,23.11a135.17,135.17,0,0,1,12,25.33c3.24,9.62,4.17,19.81,5,29.87.28,3.53,1.47,8.14,1.41,12.3l1.49-.66c1.34-.6,2.5,1.23,1.18,2l-3,1.75a8.4,8.4,0,0,1-3.74,5.52,3.06,3.06,0,0,1-4.28-1q-5.08,2.79-10.25,5.44c.33,6-.36,12.3-4.81,16.55-2.54,2.42-6.64-.66-4.86-3.75a22.16,22.16,0,0,0,2.8-9.35q-6.3,3.09-12.69,6a12.34,12.34,0,0,1-2.17,2.11,2.49,2.49,0,0,1-2.82.12q-3.47,1.53-7,3a25,25,0,0,1-2.09,4,2.7,2.7,0,0,1-4.94-1.12q-10.08,4.08-20.29,7.74C80.43,469.25,78.93,465.73,81,464.81Z" transform="translate(-22.43 -26.83)"/><path class="cls-1" d="M159,352.11c2.6,3.93,32.36,55.27,19.11,56.92-3.44.43-3.08-3.67-3.19-5.78-.23-4.67-2.2-9.52-3.68-13.9-4.18-12.38-10.44-23.9-14.67-36.23C156.08,351.64,158.22,350.91,159,352.11Z" transform="translate(-22.43 -26.83)"/><path class="cls-1" d="M181.87,378.18a171,171,0,0,0-5.62-17.44c-1.48-3.83-3-9-5.91-12-.85-.88.25-2.4,1.33-1.72,3.88,2.45,6.24,7.22,8.17,11.21a144,144,0,0,1,8.22,21.47c1,3.22,8.62,31.81-3.17,26.41a2.51,2.51,0,0,1-.51-3.94c.39-.34.5-.59.78-1.92a19.69,19.69,0,0,0,0-5.39A93.47,93.47,0,0,0,181.87,378.18Z" transform="translate(-22.43 -26.83)"/><path class="cls-1" d="M183.71,354c9.69,11.6,14.34,27.81,15.32,42.69.18,2.68-3.74,2.52-4.07,0-1.92-14.5-4.77-29.08-12.49-41.74C182,354.23,183.13,353.33,183.71,354Z" transform="translate(-22.43 -26.83)"/><path class="cls-1" d="M328.39,257.08a1.19,1.19,0,0,1,2.05,1.2c-4.83,8.64-11.34,16.1-15.9,24.92-4.75,9.17-6.76,19.21-9.38,29.1-.48,1.8-3.47,1.48-3.31-.45a81.62,81.62,0,0,1,7.75-27.72C314.38,273.9,322,266.22,328.39,257.08Z" transform="translate(-22.43 -26.83)"/><path class="cls-1" d="M424,356.77c-5-8.86-2.66-21-.69-30.46,1.3-6.2,2.51-18.16,9.32-20.86,1-.38,1.74,1.06,1,1.71-2.64,2.32-3.21,6.82-3.85,10.1s-1.38,6.84-2,10.28a75.71,75.71,0,0,0-.22,27.74C428,357.36,425.19,358.79,424,356.77Z" transform="translate(-22.43 -26.83)"/><path class="cls-1" d="M375.69,116.54c-4,5.7-9.6,11.07-13.71,17a21.29,21.29,0,0,1,4.5,1.88,1.9,1.9,0,0,1-1.46,3.46c-1.7-.47-3.53-1-5.35-1.6a29.27,29.27,0,0,0-1.66,3.62c-3,8-4.87,16.29-8.08,24.2-.93,2.28-2,4.73-3.18,7.12a2.2,2.2,0,0,1-.72,3.83,12.24,12.24,0,0,1-1.59.27,33,33,0,0,1-2.74,3.76l.24.09c1.53.61,2.06,3.31,0,3.65a11.38,11.38,0,0,1-4.12-.11c-.3.22-.6.43-.92.63-2,1.27-4.78-.75-4.52-2.86a16.35,16.35,0,0,1-5.76-6,1.36,1.36,0,0,1,2.13-1.64,24.28,24.28,0,0,0,6.35,3.73l1.81-2.16a32,32,0,0,1-5.84-2.57,1.45,1.45,0,0,1,1.12-2.65,32.6,32.6,0,0,0,7.87,1,67.55,67.55,0,0,0,5.82-11.77c2.89-7.19,4.46-15.11,7.85-22.07.35-.71.72-1.4,1.12-2.08a20.36,20.36,0,0,1-3.7-2.33c-.84-.68.07-1.94,1-1.71,1.49.37,3.06.68,4.65,1,3.94-5.57,9.15-10.34,13.41-15.61,6.53-8.08,11.36-16.83,16.78-25.61a.94.94,0,0,1,1.7.72C386.71,100.84,380.94,109.09,375.69,116.54Z" transform="translate(-22.43 -26.83)"/><path class="cls-1" d="M307.76,141a119,119,0,0,1-5.6,17.06c-.77,1.84-1.53,3.73-2.38,5.58a28.74,28.74,0,0,0,5.72-.8,2.41,2.41,0,0,1,1.28,4.65,18.27,18.27,0,0,1-9.38.63,23,23,0,0,1-3,3.95c-2.62,2.69-6.82-.73-5.08-3.92,5.45-10,10.4-19.32,13.76-30.31,3.41-11.16,7.56-22.17,10.63-33.42a1.34,1.34,0,0,1,2.61.35c-.28,5.81-2,11.21-3.71,16.74C310.63,127.93,309.39,134.52,307.76,141Z" transform="translate(-22.43 -26.83)"/><path class="cls-1" d="M332.71,224.3c-.89-1.06.28-3,1.58-2.05,7.32,5.13,7.71,18.3,7.61,26.41,0,0,0,.05,0,.08a38,38,0,0,1,6.93.28c.5-6.84-2.17-13.53-4.39-19.89-.49-1.4,1.63-2.23,2.35-1,3.58,6.18,8.14,14.07,6.25,21.37l1,.11c2.32.22,4.64.43,7,.64a29.93,29.93,0,0,0-1.89-8.49c-1-2.16,2.09-4.06,3.23-1.89a21.37,21.37,0,0,1,2.8,10.76l8.24.72,1.23.1a1.51,1.51,0,0,1,.09-.18l.13-.22s.11-.3.13-.39v0c0-.07,0-.13,0-.2v0a2.12,2.12,0,0,1,1.46-2.56A2.09,2.09,0,0,1,379,249.3a5,5,0,0,1-.07,2.53c3.62.3,7.24.58,10.88.79,4.61.26,10.25.17,14.2,2.87a28.4,28.4,0,0,0,10.62-5.12c2.05-1.71,4.93,1,3,3a26,26,0,0,1-3.81,3.14,2.43,2.43,0,0,1,1.48,1.19c1-.39,1.91-.79,2.86-1.21,3.21-1.44,5.38-3.58,7.95-5.88a.68.68,0,0,1,1.15.48c.33,5.44-5.28,8.82-10.75,11,.92,1.79,2,3.5,3.1,5.2,1.83,2.9,3.7,5.75,5.43,8.72a189.47,189.47,0,0,0,11,16.87,7.32,7.32,0,0,0,.74-.23c1.14-.43,1.91,1.43.83,2l-.22.1q1.45,1.92,3,3.81a60.5,60.5,0,0,0,13.57,2.64,1.36,1.36,0,0,1,0,2.71,42.94,42.94,0,0,1-9.25-.23c.52.59,1,1.18,1.55,1.76a.75.75,0,0,1-.9,1.17,30.33,30.33,0,0,1-6.19-4.1,44.35,44.35,0,0,1-10.91-5c-1.52-.94-.5-3.73,1.26-3q1.67.7,3.35,1.36l-.43-.53a8.7,8.7,0,0,1-1.3-.35,1.33,1.33,0,0,1-.61-2.17c-4.15-5.71-7.69-12-11.21-17.28-.89-1.32-5.5-6.92-7.84-11.71l-1.9.55c-2.59.73-3.55-3.07-1.1-4l1.65-.6a4.39,4.39,0,0,1,0-1,43.31,43.31,0,0,1-8.42,3,2.6,2.6,0,0,1-3.22-1.95c-2.85-.42-5.7-1-8.55-1.34-5.49-.56-10.95-1.17-16.42-1.89s-10.7-1.45-16-2.21c-5.84-.82-12.39-2.86-18.27-2.51a1.28,1.28,0,0,1-1.19-1.75,2.28,2.28,0,0,1-.37-.77C335.24,241.2,338.51,231.27,332.71,224.3Z" transform="translate(-22.43 -26.83)"/><path class="cls-1" d="M329,234.81c.32,4.36,1.68,8.33-.18,12.52-1,2.26-4.62.64-3.94-1.66,1.06-3.57.11-7.23,0-10.86C324.92,232.16,328.85,232.22,329,234.81Z" transform="translate(-22.43 -26.83)"/><path class="cls-1" d="M319.1,250.86a2,2,0,0,1-3.71-1,6.15,6.15,0,0,1,1.6-4,2.25,2.25,0,0,1,3.53,2.72C320,249.31,319.6,250.12,319.1,250.86Z" transform="translate(-22.43 -26.83)"/><path class="cls-1" d="M381.43,404.55c.8,6.08.09,12.1,1.48,18.17a44.48,44.48,0,0,0,8.42,16.82c1.87,2.41-1.16,5.74-3.44,3.44-9.69-9.72-14.16-25.53-9.3-38.82A1.46,1.46,0,0,1,381.43,404.55Z" transform="translate(-22.43 -26.83)"/><path class="cls-1" d="M429.6,366.66c-1.47-.33-1.06-2.46.34-2.52,5.88-.27,9.75,4.49,13.24,8.61a58.84,58.84,0,0,1,10.39,18.95c5,14.41,4.56,30,2.42,44.86-.43,3-5.41,2.27-5.25-.71.66-12.17.72-24.51-1.62-36.52a65.12,65.12,0,0,0-6.62-18.11C439.89,376.3,435.41,368,429.6,366.66Z" transform="translate(-22.43 -26.83)"/><path class="cls-1" d="M424.07,495.91c-2.93-2.55-7.63-6.74-11.8-5.08-1.23.49-2.3-1.14-1.66-2.16,6.25-9.93,22.21,5.89,25.92,11.15,8.48,12,4.81,28.8-5,38.76-2.46,2.5-7-.81-4.93-3.81,5.64-8.22,9-17.41,5.83-27.27C431,502.87,427.69,499.06,424.07,495.91Z" transform="translate(-22.43 -26.83)"/><path class="cls-1" d="M404.56,580.93c1.35-6.26,2.65-12.61,4.46-18.75,1.43-4.85,3.44-10.08,1.73-15.1-.71-2.08,2.16-2.91,3.29-1.39,2.74,3.68,1.94,8.53,1.24,12.77-1,6.19-2.51,12.33-3.65,18.5-2.76,15-5.37,30-7.66,45.08-.51,3.36-6.32,2.58-5.94-.8A403.69,403.69,0,0,1,404.56,580.93Z" transform="translate(-22.43 -26.83)"/><path class="cls-1" d="M209.84,396.14c4-.33,5.92-2.24,8.54-5.07,1.88-2,8.46-.69,11.4-.25,10.28,1.55,21,.75,31.43,1.55.92.07,1.08-1.16.43-1.6l-.23-.14,2.1.13,1.3.09.55.53a2.15,2.15,0,0,0,3.14-.27c3.82.28,7.61.58,11.41.95a28.9,28.9,0,0,0,5.22,3.52c1.7.88,3.73-1.2,2.66-2.65l3.39.44c2,1.51,4,3,6.1,4.44,1.84,1.25,3.48-1.68,1.72-2.95l-.53-.37c3.58.58,7.18,1.18,10.79,1.75a1.22,1.22,0,0,0,1.22.4,1.09,1.09,0,0,0,.31-.16c11.85,1.83,23.82,3.21,35.66,2.21a2.27,2.27,0,0,0,2.25,2.28c2.17-.18,4-1.31,6.13-1.71a83.21,83.21,0,0,1,8.64-.89c5-.4,10-.66,15-.77,7.48-.16,21.12.45,26.41-6.11a1.1,1.1,0,0,0-1.07-1.83c-5.32,1.39-9.79,3.06-15.44,3.19-4.4.1-8.8,0-13.2-.09,4.54-1.28,9.06-2.6,13.57-3.67a161.8,161.8,0,0,1,19.81-3.65c2.77-.3,9.69-1.55,11.81,1.05.65.8,1.66-.22,1.31-1-1.55-3.61-6.37-3.92-9.78-4-6.73-.23-13.5.75-20.13,1.83-12.49,2-26.26,4.14-37.91,9.26a2,2,0,0,0-1.13,1.32,10.91,10.91,0,0,0-3.64,1.31c-19,.87-37.79-3.45-56.48-6.43-3.62-.58-7.24-1-10.85-1.44-6-6.35-10.85-14.42-10.85-23,0-2.15-3.06-2.06-3.27,0-.79,7.66,2.12,15.9,7.05,22.34q-3.94-.36-7.9-.66c-2.79-4.29-5.67-8.44-7.74-13.23-2.71-6.27-3.61-12.5-5.07-19.1a.8.8,0,0,0-1.52,0c-1.49,6.37-.26,14.26,2.53,21.5a11.31,11.31,0,0,0-1.31-1.68c-1.58-1.67-4.09.85-2.51,2.51a8.12,8.12,0,0,1,2,4c.42,1.88,3.62,1.49,3.4-.46a10.29,10.29,0,0,0-.21-1.21,49.88,49.88,0,0,0,4,7.1c-2.73-.25-5.45-.57-8.15-1,0-.08-.06-.17-.1-.25a10.47,10.47,0,0,0-3.39-3.67,2.18,2.18,0,0,0-3,.78,2.12,2.12,0,0,0-.25,1.49c-2-.62-4-1.29-6.06-1.8,3.79-9.88,2.42-20.49.67-30.91-.29-1.75-3.18-1.33-3.08.42.68,11.06.88,21.48-3.55,31.88a2.61,2.61,0,0,0,.44,2.79c-1-.12-1.88-.28-2.8-.45,4.78-10.22-.23-24.83-2.69-34.73-.61-2.47-4.17-1.39-3.75,1,1.89,10.74,4.75,22.16.57,32.49-.58-.09-1.16-.16-1.73-.21.42-5-2-10.52-2.66-15.34-.35-2.63-4.36-2.82-4.26,0,.2,6,1.79,11.14.53,16.91l-.4.3c0-.53,0-1-.09-1.56-.2-2.71-4.39-2.76-4.26,0a41.36,41.36,0,0,1-.25,5.37,9.17,9.17,0,0,1-3,1.35C205.74,391,206.41,396.42,209.84,396.14Zm27.81-10.7-.54,0a2.32,2.32,0,0,0,.19-.18Z" transform="translate(-22.43 -26.83)"/><path class="cls-1" d="M171.88,303.67a2.14,2.14,0,0,1-2.07-3.56c4.07-3.82,9.4-6.72,13.89-10.1,5.38-4.07,10.66-8.06,16.8-10.94a1,1,0,0,1,1,1.77,139.09,139.09,0,0,0-15.32,12.43C182,297,177.27,301.89,171.88,303.67Z" transform="translate(-22.43 -26.83)"/><path class="cls-1" d="M429.11,163.11l-1.67,1.33c1.79,2.22-1.23,5.26-3.35,3.18l-.29-.27c-6,4.86-11.42,9.69-15.76,16.71a79.48,79.48,0,0,1-9.67,12.18c-.92,1-1.86,2.14-2.84,3.31a11.62,11.62,0,0,1,1.09,1.16c1.17,1.47.14,3.82-1.91,3.29a12,12,0,0,1-2.44-1l-.3.26a1.87,1.87,0,0,1-.12,2.63c-4.35,3.42-11.47-2.52-14.65-5.35s-7.93-7.85-5.86-12.49c.3-.68,1.34-.31,1.34.36,0,3.87,5,7.42,7.76,9.32a34.57,34.57,0,0,0,4.59,2.67,10.87,10.87,0,0,1,1.16-2.06l-.77-.72a27.3,27.3,0,0,1-6.76-9.65c-.62-1.51,1.71-2.3,2.52-1.06a32.54,32.54,0,0,0,7.68,7.79l.34.25c.57-.57,1.15-1.14,1.72-1.73q1.19-1.23,2.35-2.47a8,8,0,0,0-1.92-1.2,1.33,1.33,0,0,1-.48-1.82,1.36,1.36,0,0,1,1.82-.48,9.51,9.51,0,0,1,2.39,1.53,65.3,65.3,0,0,0,6.63-8.47,63.92,63.92,0,0,1,16.79-17.92,50.62,50.62,0,0,1-4.18-4.31c-.94-1.11.34-3.17,1.67-2.16,1.92,1.45,4,2.66,6,4a124.72,124.72,0,0,0,38.38-44.1.75.75,0,0,1,1.36.57A97.84,97.84,0,0,1,429.11,163.11Z" transform="translate(-22.43 -26.83)"/><path class="cls-1" d="M442.93,311.33a1,1,0,0,1-.11.42c-7.41,13.83-10.42,27.31-7.06,42.84a2.29,2.29,0,0,1-2.88,2.75,1.09,1.09,0,0,1-1.51-.37c-.48-.72-1-1.42-1.49-2.13a10.75,10.75,0,0,1-1.12-2.33,1.21,1.21,0,0,1,.56-1.37,1.12,1.12,0,0,1,.74-.15c-2.74-13.69,1.36-30.32,11-40.13a15.36,15.36,0,0,1-5.45-3c-1.74-1.49.49-4.17,2.38-3.09,6.4,3.65,12.15,2.35,19.07,2.09,1.47-.06,1.51,1.91.32,2.38C452.67,311.08,447.62,312.19,442.93,311.33Z" transform="translate(-22.43 -26.83)"/><path class="cls-2" d="M24,325.66c6-1.82,11.85-3.83,18-5.06,6.51-1.3,13.11-2.3,19.55-3.93,7-1.76,14-3.85,20.86-6.06,5.72-1.84,12-3.71,17.18-6.89a1.47,1.47,0,0,0,1.08.58c8.09.5,14.39,6.86,19.33,12.74a170.28,170.28,0,0,1,14.25,20.63c11.25,18.31,21.46,36.61,28.13,57.16,3.17,9.77,7.64,21.34,7.22,31.76-.29,7.13-4.48,11.17-10.48,14.41-19.91,10.77-40.65,20.77-61.44,29.71-4.19,1.8-.58,7.92,3.58,6.13,13.61-5.86,26.9-12.45,40.12-19.13,8.68-4.38,18.42-8.07,26.26-13.91a21.21,21.21,0,0,0,8.78-18.34c0-.4,0-.8-.07-1.2a3.46,3.46,0,0,0,1.07-.17c10.2-3.34,18.53-10.23,28.2-14.67,4.31-2,6-4.42,6.45-8.15a3,3,0,0,0,3,1.46c28.76-2,57.55-.44,86.26,1.65,14.31,1,28.62,2.21,42.93,3.28a121.15,121.15,0,0,0,21.77-.1c-2.83,7.25-.77,15.8,2,23,3.31,8.76,7.38,18.26,13.5,25.46a52.11,52.11,0,0,0,18.89,14A41.56,41.56,0,0,0,398,484.53a30.23,30.23,0,0,0-9.76,7.19,54,54,0,0,0-12.38,21.14c-2.93,10.14-1,20,6.13,27.89,4.16,4.61,11.33,12,18.2,10.49-1.24,13.91-1.33,28-1.7,41.91-.39,14.59-.79,29.17-.88,43.77,0,4.43,6.84,4.43,6.87,0,.09-14.59.3-29.18.52-43.77s.69-29.35-.7-43.89a2.55,2.55,0,0,0-.06-.35,3.06,3.06,0,0,0-2.54-4.59c-6.77-.51-13-5.88-16.59-11.56-4.12-6.59-3.95-13.76-1.24-20.85a55.15,55.15,0,0,1,9.67-16.72,26.63,26.63,0,0,1,5.43-4.71q.2.66.44,1.3a21.75,21.75,0,0,0,5.37,8,12.15,12.15,0,0,0-2.25,9c.84,5.12,5,10.31,10.26,11.37,5.62,1.14,11.38-1.32,13.63-6.82,2.07-5.06-.43-10.31-5.75-11.6a1.45,1.45,0,0,0-1,.12c-2.06-1.48-4.35-2.8-6.49-4.27a3,3,0,0,0-.93-.65c-3-2.15-5.49-4.69-6.45-8.52-.12-.48-.2-1-.29-1.46l1.3-.62a1.24,1.24,0,0,0,0-2.13,8.71,8.71,0,0,0-1.65-.54,31.89,31.89,0,0,1,1.79-11.36c.56.15,1.12.3,1.69.44a53.57,53.57,0,0,0,30.9-1.61c1.91,4.25,4.13,7.89,3.85,13a23.86,23.86,0,0,1-1.51,6.4c-6.46-8-15.33-12.81-26.4-8.31-1.16.47-1.11,2.33.31,2.31,11.28-.14,19.11,5.42,24.17,13.57,0,.1,0,.19,0,.29a1.9,1.9,0,0,0,1.2,1.73,51.79,51.79,0,0,1,4.94,14c1.77,8.45,1,15.08-5,21.7-5,5.54-9.56,8.56-17,9.29-2.31.23-4.08,3.08-2,4.93a9.2,9.2,0,0,0,3,1.86c-1.41,5.25-.92,10.8-1.88,16.19-.77,4.34-2.82,10.59,0,14.44a2.73,2.73,0,0,0,3.88.59c1.82,1.42,3.66,2.75,5.63,4.06a33,33,0,0,1,3,2.47c-1.86,1.3-3.69,2.68-5.56,4-1.66,1.12-3.46,2.21-5.05,3.49,0-1.86-.1-3.72-.25-5.58a.82.82,0,0,0-1.64,0c-.93,9.75-2.45,19.43-3.84,29.12-.87,6-2.73,13.55-2.41,20.13-.42,0-.83-.08-1.25-.1a2.73,2.73,0,0,0-2.65,2.44c-1.89-.14-3.78-.25-5.64-.55-2.51-.4-4.61-1.81-7.07-1.95-2.93-.16-3.45,3.67-1.38,5.1s6.25,1.09,8.89,1a53.37,53.37,0,0,0,7.35-.71,23.61,23.61,0,0,0,4.32,1.14,3.16,3.16,0,0,0,.72.11c5.3.78,11,.32,16.15,1.2,2.75.46,4.94-2.6,2.81-4.82-3.81-4-8.19-7.51-12.32-11.19a50.05,50.05,0,0,0,7.42-1.12,45.36,45.36,0,0,0,12.21-4.05c2.23-1.14,1.69-4,0-5.25-4.59-3.42-9.65-7.17-15.18-9.23l.7-.18c1.82-.41,3.67-.73,5.46-1.25,1.58-.46,2.78-2.61,1.67-4.1a19.34,19.34,0,0,0-9.64-6.74c1.44-1.23,2.84-2.52,4.28-3.73A45.81,45.81,0,0,0,439,592a6.22,6.22,0,0,0,1.12.44c1.27.34,3-.68,2.85-2.17-.47-3.5-4.07-5.37-7.07-6.69-2.57-1.13-5.32-1.84-7.95-2.79.18-1.83-.14-3.58,0-5.49.17-2.68.58-5.33.77-8,.35-4.94-.13-9.88,0-14.82,6.3-.29,13.12-6.22,16.83-10.41,7-8,10.19-16.23,7.79-26.8a68.55,68.55,0,0,0-7-18.06c2.78-3.54,3.87-9.06,4-13,.12-5.25-.89-11.72-4.5-15.88A44.34,44.34,0,0,0,463,451.18a66.69,66.69,0,0,0,3-60.26,72.49,72.49,0,0,0-16.7-23.5c8.06-5.06,9.39-18.63,12.48-26.58,5.32-13.65,14.81-28.2,13.71-43.43a2.85,2.85,0,0,0,2.74-3.88c-2.81-8.82-7.65-17-12-25.2a204.59,204.59,0,0,1-9.32-19,114.23,114.23,0,0,0-5.37-12.29q-4.13-7.6-9-14.81c-2.36-3.53-4.72-7.51-8-10.29-4.25-3.63-10.36-4.27-15.69-4.84-5.73-.61-11.46-1.32-17.16-2.2,3.73-4.29,6.43-10,9.07-14.65s5.31-10.42,8.85-14.78c26.61-11.51,42.9-35.94,51.37-63a1.45,1.45,0,0,0,0-.15,61.71,61.71,0,0,0,16.58-21.9c3.58-7.76,6.66-16.62,5.43-25.29-.84-5.92-2.74-13.21-7.11-17.59-3.52-3.53-7.62-3.7-10.86-.89a3.13,3.13,0,0,0-2.76.67c-5.57,4.92-9.53,11.74-13.64,17.85a158.68,158.68,0,0,1-14.48,18.7c-10.54,11.54-22.18,22-33.22,33-11.39,11.4-22.71,22.88-34.65,33.72-7.73,7-15.56,14.18-23.64,20.94a59.38,59.38,0,0,0,3.62-5.35,96.4,96.4,0,0,0,8.1-15.84c1.89-4.84,3.69-9.93,4.13-15.15.06-.76.65-2.15,0-1.1.13-.21.15-.26.13-.26l.23-.25c.68-.75,1.41-1.45,2.15-2.14,6.1-5.6,12.16-11.24,16.8-18.17a62.52,62.52,0,0,0,7.45-14.94c1.52-4.59,3.32-10.16,3-15.17,4.05-2.64,6.26-7.91,7.87-12.25a68,68,0,0,0,4.2-22c.17-8.81-3.07-24.18-14.34-19.31-.6-2.65-4.46-4.06-6.31-1.09-15.4,24.77-30.11,49.83-46.37,74.07-8.13,12.12-16.36,24.17-24.6,36.21l-1.05,1.55q.48-1.56,1-3.1c2.24-7,4.47-14,5.62-21.23a117.25,117.25,0,0,0,1.25-23.75c-.57-12.78-2.24-36.73-17.78-40.84C298.46,49,292.27,54,290.51,63c-2.49,12.78-2.83,25.93-5.83,38.62-6.43,27.21-19.94,53.26-34,77.18a1.37,1.37,0,0,0-.13.3c-2.52,2.39-4.61,5.69-6.57,8.17-3.47,4.37-6.74,9-9.93,13.56-6.53,9.35-12.91,18.82-19.72,28-9.38,12.6-19.37,24.85-29.36,37-3.53,4.28-6.8,8.76-10.41,13-3.35,3.92-7.24,9-12.19,11a3.72,3.72,0,0,0-2.39,3.36,17.37,17.37,0,0,0-8.7-1,1.12,1.12,0,0,0,0,2.24c11,.79,18.59,15.05,22.84,23.63,5.67,11.46,9.7,23.58,14,35.6,4.72,13.2,13.31,25.25,16.63,38.89.66,2.71,1.55,6.62.72,9.39-.32,1.08-3.2,1.8-4.13,2.24-8.73,4.14-16.43,10.43-25.68,13.46h0c-1.44-8.92-4.42-17.84-7.3-26.16-7.66-22.14-19-42.09-31.72-61.66-3.38-5.2-8.18-12.81-14-18.91a58.38,58.38,0,0,1,5.6-3.53c2.94-1.44,5.92-2.79,9-4a103.72,103.72,0,0,0,14.67-6.72,1.11,1.11,0,0,0-.85-2c-6.49,1.8-13,3.31-19.39,5.55-4.3,1.51-9.79,3.36-13.29,6.69-4.88-4-10.33-6.53-16.15-5.73.4-2-1-4.29-3.41-3.4-13.71,5.14-27.2,10.78-41.53,14.19-11,2.61-25.82,3.67-34.41,11.8A1.22,1.22,0,0,0,24,325.66ZM426.22,603a33.5,33.5,0,0,1,5.43,3.78c-.64.14-1.27.27-1.9.42a13.27,13.27,0,0,0-5,1.81q.2-2.92.3-5.84A2.15,2.15,0,0,0,426.22,603Zm5.06,22.48c-2.56.36-5.36.17-7.87.82q.23-3.38.51-6.76c.16-2,.33-4,.5-6a1.3,1.3,0,0,0,.24.25c4.7,3.5,9.64,6.53,14.34,10A48,48,0,0,1,431.28,625.47Zm-8.17,15.93c.06-2.91-.2-5.87-.07-8.74,0-.2,0-.39,0-.59l.65.15c1.06,3.66,3.61,6.77,6.3,9.72l-3.58-.23C425.33,641.64,424.22,641.53,423.12,641.4ZM408.78,507.26a4.41,4.41,0,0,1,1-3.14c2.91,2.28,6.23,4.35,9.64,4.37a2.9,2.9,0,0,0,2.18-1,4.5,4.5,0,0,1-.8,4.28,6,6,0,0,1-7.69,1.91C410.92,512.38,408.85,509.94,408.78,507.26Zm1.39-42.16a27.74,27.74,0,0,1,3.77-5,29.78,29.78,0,0,0,11.77-1c11.87-3.54,22.45-10.43,26.58-22.51a65.62,65.62,0,0,0,1.88-33.8c-1.58-7.57-5.53-19.88-14.25-22.13.28-3.32-1.64-5.7-4.2-7.52A31.9,31.9,0,0,0,419,358.48a51.56,51.56,0,0,1,7.83,2,28.34,28.34,0,0,0,3.1,3.09c3.22,2.73,8,5.45,12.59,5.67,9.72,7.91,16.7,19.25,20.31,32C468,419.64,463.89,443,449.5,456.4,439.16,466,423.79,468.64,410.17,465.1ZM420,347.51a38.08,38.08,0,0,0,3.07,7.55,39.24,39.24,0,0,0-7.53,0,1.43,1.43,0,0,0-1.35,1.78c-17.41-5-39.85-1.56-56.2-1.61a2.06,2.06,0,0,0-2.1-.43l-3.09.86C345.15,352,338.71,344.16,333.4,338s-10.37-12.87-16-18.88c.39-11.13,2.25-21.66,7.83-31.71a99.37,99.37,0,0,1,21.49-26.12c2.35.43,4.69.82,6.94,1.19a162.71,162.71,0,0,0,20.84,2.26A105.07,105.07,0,0,0,406,261.18c0,.1,0,.19,0,.29,3,14,9.06,30.28,20.24,39.87-4.11,7.06-6.07,16.12-7.21,24C418,332.59,418,340.41,420,347.51Zm-9.17,49.61a81,81,0,0,0,16.61-5c3.94-1.69,9.45-4.21,11.59-8.4a38.49,38.49,0,0,1,9.21,20.64c1.24,9,1,18.69-1.68,27.43a27.92,27.92,0,0,1-13.62,16.88c-7.3-3.08-14.67-.63-20.66,4.23a17.09,17.09,0,0,1-5-1.81c-4.52-2.51-7.75-6.23-11.43-9.61-1.09-2.24-2.48-4.35-3.47-6.64a61.66,61.66,0,0,1-3.57-10.61,47.71,47.71,0,0,1-.2-21.66C396,400.53,403.29,398.57,410.84,397.12Zm-35.39,8.94c1.61-.34,3.22-.73,4.85-1.18l3.66-1c-2.54,6.4-2.44,13.73-1.11,20.44,1.13,5.71,3.08,13.53,6.76,18.95a30,30,0,0,0,17.2,15.18,40.62,40.62,0,0,0-3.11,4.46,41,41,0,0,1-11-6.91c-7-6.16-11.26-14.23-15-22.64-3.08-7-8.28-18.52-2.93-25.56A3.11,3.11,0,0,0,375.45,406.06Zm-181-53.38c-5-13.8-9.68-27.95-16.94-40.79-3.13-5.53-7.09-11.72-12.26-15.72,10.05-4.62,16.6-15.5,23.25-23.83,10-12.49,20.08-24.91,29.6-37.76,7.11-9.6,13.57-19.66,20.12-29.64,3.43-5.23,6.83-10.49,10.1-15.82,2-3.23,5-6.77,6.09-10.48,15.62-17.95,25.06-40.77,33.05-63,4.28-11.87,6-24.1,7.5-36.55.76-6.14.34-24.7,10.94-21.13,6.55,2.21,9.14,10.41,10.53,16.46a102.89,102.89,0,0,1,2.35,23,97.83,97.83,0,0,1-3.06,25.61c-3.12,11.66-8.66,23.21-10.21,35.22-1.87,2.76-3.86,5.56-5.64,8.47-11.33,6.92-24.41,9.7-35.71,17a.69.69,0,0,0,.35,1.28c3.82.36,7.46-1.31,11-2.62,3.94-1.47,8-2.51,12-3.76a56.34,56.34,0,0,0,8.59-3.36,1.71,1.71,0,0,0,2.58.52c5.33-4.54,9.34-11.08,13.45-16.71s8.22-11.3,12.26-17q12.68-17.87,25-36c16.06-23.78,32.69-47.91,45.95-73.42h.13c10.59-2.26,9.45,13.57,8.68,19.93-1.16,9.5-4.06,19.07-10,26.69a3.43,3.43,0,0,0-2,1.91c-2.15,5.63-2.06,12-4.38,17.75a61.07,61.07,0,0,1-7.68,13.58c-4.33,5.8-9.77,10.34-14.68,15.58-1.36,1.46-2.78,3.05-2.93,5.13a51.79,51.79,0,0,1-2.68,13.13,111.79,111.79,0,0,1-14.18,27.56,1.48,1.48,0,0,0,1.4,2.24c-2.15,1.72-4.32,3.41-6.52,5-.83.61-.1,2,.83,1.42a266.53,266.53,0,0,0,39.17-27.91c12.16-10.62,23.56-22,35.12-33.25s23.77-22.12,34.53-34.25c10-11.28,18-24.17,27.06-36.16a2.86,2.86,0,0,0,.54-1.13c7.36-1,9.77,14.51,9.21,20.16-1.49,15.17-10.71,28.73-22.07,38.38-2.25,1.91-.51,5.34,1.85,5.88-6.24,10.36-11.48,21.39-19.15,30.81-8.38,10.3-18.22,18.51-30.6,23.6a4.1,4.1,0,0,0-1.72,6.08c-3.27,2.72-5.79,6.48-8.31,10.06-4.39,6.23-8.83,12.37-13.33,18.5,0,0-.05.1-.08.14a210,210,0,0,1-26.78-6.46,179,179,0,0,1-18.18-6.92c-3.66-1.63-7.31-3.53-11.18-4.64-8.35-2.38-15.51,1.36-22.27,6a1.27,1.27,0,0,0,1.28,2.2c1.15-.54,2.3-1.07,3.47-1.55,7.5-3.09,13-4,20.4-.37,11.93,5.87,23.65,11.06,36.6,14.39a297.29,297.29,0,0,0,37.28,6.85c6.12.76,14.15.63,18.21,6.07,2.89,3.88,5.57,7.93,8.11,12.05,5.75,9.35,9.33,19.23,14.15,29,5.76,11.71,12.3,23,17.34,35a3.6,3.6,0,0,0,.56.9c-1.48,13.9-8.84,26.62-14.44,39.19a148.26,148.26,0,0,0-5.35,15.06c-1.2,3.73-2.61,9.79-6.2,12.05a6.42,6.42,0,0,1-2.31.88A45.73,45.73,0,0,0,431,356.65,28.28,28.28,0,0,1,425,343.5a54.89,54.89,0,0,1,.46-21.18c1.29-6.11,3.69-11.71,5.58-17.56a32.87,32.87,0,0,0,12.33,4.49,1.67,1.67,0,0,0,.89-3.21c-20.72-7.28-26.59-27.19-32.55-46.12a3.39,3.39,0,0,0-.16-.38q2.4-.78,4.8-1.67a.82.82,0,0,0-.44-1.58c-13.89,3.22-29,3.86-43.21,2.88a157.16,157.16,0,0,1-21.11-2.82c-6.18-1.28-12.29-3.48-18.53-4.32-2.6-.35-3.63,3.84-1.33,4.93a46.92,46.92,0,0,0,8.08,2.85c-15.21,14.14-29.39,35.77-25.91,56.88a2.77,2.77,0,0,0-.92.17c-1.32-1.44-2.7-2.83-3.92-4.2-2.34-2.63-8.64-8.57-7.27-12.67a.66.66,0,0,0-1.09-.63c-3.45,3.36.39,9.2,2.44,12.3a89.14,89.14,0,0,0,11,13.7,1.92,1.92,0,0,0,1.53.61c5.68,6.15,11,12.69,16.88,18.61C337,349,342.62,354.66,349,356.71c-2.19.61-4.38,1.24-6.58,1.84-3.43.93-7.46,1.84-9.91,4.58a.69.69,0,0,0,.49,1.18c4,0,8.07-1.56,12-2.27,2.85-.52,5.77-.95,8.58-1.7a2.4,2.4,0,0,0,1.49.75c14,1.91,28.33-1.32,42.35-1,15.46.38,28.52,4.41,37.73,17.31.67,2.54-.49,4.9-4.17,7-4.88,2.84-10.36,4.49-15.82,5.85-6.63,1.66-13.41,2.44-20,4.21l-2,.55c-1.4-1.69-.88-3,1-5.15a32.62,32.62,0,0,1,6.34-5.7c6.35-4.22,13.94-4.93,21.15-6.77a.62.62,0,0,0,0-1.18c-10.62-2.51-21.36-.26-29.31,7.31-3.27,3.11-7.26,9.16-5.63,13.37-6.93,2.06-13.91,4.11-21.07,4.88-12.27,1.33-24.78-.52-37-1.67s-24.74-2.37-37.13-3.38c-25.42-2.06-51-3-76.48-1.24a3.51,3.51,0,0,0-2.93,1.82c0-.1,0-.19,0-.29C211,381.2,199.82,367.32,194.49,352.68Z" transform="translate(-22.43 -26.83)"/><path class="cls-2" d="M294.78,184c8.91-3.74,20.1-6.36,29.82-5.37a2.63,2.63,0,0,1,0,5.25c-8,1-15.93,1.46-23.8,3.7-9.12,2.6-15.67,6.89-21,14.7-.58.85-2.17.63-2.09-.57C278.33,192.93,287.46,187,294.78,184Z" transform="translate(-22.43 -26.83)"/><path class="cls-2" d="M412.31,640.13a2.42,2.42,0,0,1-4.67-1.29c2.08-10.84,1.2-21.91,2.12-32.89,1.13-13.55,3.05-27.07,3.07-40.69a1,1,0,0,1,2,0c.9,13.6-.2,27.11-.93,40.69-.33,6.17-.27,12.28-.1,18.46C413.93,629.52,414.17,635.27,412.31,640.13Z" transform="translate(-22.43 -26.83)"/></svg>