<svg id="Layer_1" data-name="Layer 1" xmlns="http://www.w3.org/2000/svg" viewBox="0 0 464.53 387.26"><defs><style>.cls-1{fill:#bbb;}.cls-2{fill:#494949;}</style></defs><title>hand-ok</title><path class="cls-1" d="M505.21,315.36c-9.67,2.68-19.37,5.22-29.18,7.36-17.84,3.88-40.61,7.8-55.77-5.07-1.12-1-3.07.29-2.15,1.66.4.6.83,1.16,1.26,1.71-5.41-1.66-8.11-3.73-10.09-9.54-1.72-5.08-2.05-11.44-.2-16.53.48-1.31-1.51-2.05-2.19-.92-3.71,6.14-3.4,14.18-1.55,20.89-4.61-4.91-6.7-9.44-6.88-16.4-.14-5.51.65-11,.64-16.5,0-1.4-2.25-1.78-2.5-.34-1.64,9.32-4.67,21-.83,29.78-12.11-6.69-6.82-21.83-8.08-33.22a1.22,1.22,0,0,0-2.45,0c-.93,11.35-7.17,34.36,9.51,37.36a2.32,2.32,0,0,0,2.5-1.41,18.28,18.28,0,0,0,5.61,5.39,2.46,2.46,0,0,0,3.67-1.49c2.47,5.2,7.5,10.2,13.45,8.06a2.73,2.73,0,0,0,1.82-2.5c5.5,5.13,13,7.51,21,8.36-12.11.8-24.35,1.85-35.33,7.26-1.12.55-.14,2.11,1,1.64,14.85-6.33,31.82-5,47.58-6.32,16.25-1.4,34.42-3,49.63-9.16a2,2,0,0,0,.88-3c3.33-.9,6.65-1.81,10-2.69,3.76-1,8.29-1.49,11.58-3.68,1.9-1.26,2-4.82-.69-5.3C520.44,309.53,511.82,313.53,505.21,315.36Z" transform="translate(-73.72 -36.52)"/><path class="cls-1" d="M431.19,277.56a59.87,59.87,0,0,1-10.8-1.73c-5.19-3.22-8.54-6-10.37-12.11-1.6-5.4-1.21-11.52-.66-17.06.17-1.69-2.28-1.79-2.79-.38-2.47,6.81-3,17.08.34,24.69-2.47-1.15-4.9-2.41-7.28-3.75a1,1,0,0,0-.43-.12c-2.79-5-5.3-10.48-3.47-16.18.6-1.86-2.38-3.16-3.18-1.34-3.61,8.22.25,16.35,4.43,23.58,1.45,2.5,5.06.67,4.51-1.77a57.37,57.37,0,0,0,10.06,6.06,14.72,14.72,0,0,0,7.06,3.29,2.82,2.82,0,0,0,1.35-.08c12.33,3.67,25.65,3.54,39.27,2,12-1.31,23.87-2.66,35.84-3.81,10-1,24.64-1.47,32.5-8.54,2.56-2.3-.22-5.74-3.06-5.26-4.88.83-9.59,3.19-14.48,4.31a140.83,140.83,0,0,1-17,2.49c-10.29,1.07-20.51,2.31-30.76,3.74S441.59,278.23,431.19,277.56Z" transform="translate(-73.72 -36.52)"/><path class="cls-1" d="M507.25,370.92c2.63-1,3.39-5.5,0-6.12-5-.92-10.48.27-15.54.71-6.15.54-12.31,1-18.48,1.31-12.56.64-25.24.55-37.68-1.38-11-1.7-21.76-5.28-31-11.65-10.94-7.58-16.46-19.52-20.34-31.81-.53-1.67-3.37-1.46-3.18.43,2.76,26.29,22.5,43.12,47.16,48.92,12.78,3,26.12,3.37,39.19,3,6.71-.17,13.41-.63,20.1-1.15C493.75,372.73,501.37,373.14,507.25,370.92Z" transform="translate(-73.72 -36.52)"/><path class="cls-1" d="M390.6,364.06a1.3,1.3,0,0,0-.34-2.55c-9.08-.06-10.45,12.27-10.13,19,.46,9.63,5.68,20.36,16.44,20.64a2.56,2.56,0,0,0,2.68-1.66,23.86,23.86,0,0,0,10.85,9.21c16.89,7.84,41.56,10,59.21,3.65,3-1.07,2.7-5.89-.78-5.74-17.19.73-33.46,2.2-50.25-2.89-6.79-2.06-13.78-5.27-16.32-12.35-2.18-6.08-1.8-13.35-2.26-19.71a1.87,1.87,0,0,0-3.73,0c-.6,8.59-1.12,16.83,1.34,23.73a3.44,3.44,0,0,0-.74-.19c-7-.93-9.9-8.24-11.12-14.27C384.46,376,384.33,365.61,390.6,364.06Z" transform="translate(-73.72 -36.52)"/><path class="cls-1" d="M335.5,400.37a59.36,59.36,0,0,1-12-5,3,3,0,0,0-2.7-3.88q-2-.15-4-.35a96.31,96.31,0,0,1-10.52-8.61c-8.68-8.14-17.95-19.8-17.88-32.3,0-2.14-3.12-2.08-3.28,0-1,12.89,6.83,24.48,15,33.7,1.54,1.75,3.22,3.53,5,5.29a61,61,0,0,1-17.65-7.08c-10.38-6.25-18.27-16.25-24.85-26.22a1.25,1.25,0,0,0-2.15,1.26c11.67,21.59,29.38,37.24,53.66,39.79,6.09,4.51,12.86,8,19.85,9.13C337.6,406.63,339.23,401.46,335.5,400.37Z" transform="translate(-73.72 -36.52)"/><path class="cls-1" d="M361.42,402.64a23.69,23.69,0,0,0,11.79,4.42,1.76,1.76,0,0,0,.59,1.26,8.63,8.63,0,0,0,9.48,2.07,2.26,2.26,0,0,0,1.54-2.72v0c1.4-.72,2-3,.23-3.78a23.13,23.13,0,0,1-7.57-5.54c-1.17-1.29-3.41.41-2.42,1.87.39.58.8,1.13,1.23,1.68-3.9-1.45-7.82-2.34-11.5-4.42-4-2.27-7.37-5.59-10.48-8.94-6.45-6.92-11.47-15-16.77-22.82-1.28-1.89-4.28-.2-3.09,1.81,5.29,9,10.32,18.14,17.11,26.11a54.57,54.57,0,0,0,6.83,6.76c-23.2,1.07-40.9-26.56-50.25-44.56-.71-1.36-3.09-.39-2.51,1.06A115.85,115.85,0,0,0,326.86,391c8.08,9,19.83,18,32.6,15A2.73,2.73,0,0,0,361.42,402.64Zm16.44,3.83a2,2,0,0,0,.86-1.9,21.39,21.39,0,0,0,2.34,1.9A5.38,5.38,0,0,1,377.86,406.46Z" transform="translate(-73.72 -36.52)"/><path class="cls-1" d="M379.2,304.12C371.21,324.43,350,333,332.78,344a1.32,1.32,0,0,0,1.33,2.28c18.11-8.79,44-19.15,49.53-40.93C384.39,302.4,380.26,301.41,379.2,304.12Z" transform="translate(-73.72 -36.52)"/><path class="cls-1" d="M382.68,231.82c11.84-.88,23.46-3.89,35.23-5.4a125.93,125.93,0,0,1,37.35,1.1,2.41,2.41,0,0,0,1.28-4.64c-23-8.27-51.74-.87-74.28,5.86C380.62,229.23,380.87,232,382.68,231.82Z" transform="translate(-73.72 -36.52)"/><path class="cls-1" d="M462.79,224.63c.88.9,2.28-.5,1.38-1.38L462.89,222a1,1,0,0,0-1.35,1.35Z" transform="translate(-73.72 -36.52)"/><path class="cls-1" d="M244,356a84.76,84.76,0,0,1-4.66-16.82c-2.31-12.11-2.71-24.68-2.82-37a1.5,1.5,0,0,0-3,0c-.84,12.79-1.06,25.64.79,38.36a92.08,92.08,0,0,0,4.49,18.58c.28.77.58,1.57.9,2.39-3.83-2.72-6.89-5.19-9.49-9.62-3.14-5.37-4.77-11.59-6-17.64-2.32-11.66-2.75-25.29.69-36.77.5-1.67-1.95-2.26-2.55-.7-4.89,12.59-4.74,27.09-2.75,40.25,1.58,10.41,7,29.16,19.66,31.07a3.13,3.13,0,0,0,3-1.07,15.92,15.92,0,0,0,5.17,5.85c2,1.25,5.29-.85,4.3-3.3C249.73,364.81,246,360.92,244,356Z" transform="translate(-73.72 -36.52)"/><path class="cls-1" d="M216,376.5c-11.82.88-14.81-22.81-16.32-30.71-2.65-13.86-5.49-30.24-3.55-44.4.28-2-2.73-3-3.17-.87-2.43,11.82.33,95.14,24.42,81.06C219.65,380.27,218.83,376.29,216,376.5Z" transform="translate(-73.72 -36.52)"/><path class="cls-1" d="M203,381.24c-.41-.12-.8-.26-1.19-.41a2.68,2.68,0,0,0-.45-.8l-1.14-1.38a2.73,2.73,0,0,0-2.81-4.24l-.56.14c-4.16-5.08-8.32-10.26-12.2-15.61a158.74,158.74,0,0,1-4.93-16.74c-3.67-14.59-7.5-33.66-2.72-48.45.57-1.76-2-2.35-2.69-.74-6.13,14.83-3.47,34-.06,49.65-5.26-9.73-9-20.15-10-31.61-.13-1.58-2.53-1.63-2.5,0,.35,17.56,7.26,34.08,17,48.76a64.67,64.67,0,0,0,8.43,17.43c-6.94,2.23-13.74,4.94-20.54,7.58A141,141,0,0,1,155.35,361a2.33,2.33,0,0,0,.42-3.88l-2.65-2.48c-5.65-17.09-9-35-13-52.78-.33-1.5-2.5-.84-2.26.62,2.5,15.45,4.86,30.85,8.65,45.81-7.78-7.8-15.09-16.4-19.44-26.23-.24-3.28-.39-6.55-.45-9.79a1.52,1.52,0,0,0-2.86-.67,43.88,43.88,0,0,1-.79-7.44,1.74,1.74,0,0,0-3.48,0,50.77,50.77,0,0,0,4,21.44,137.64,137.64,0,0,0,4.22,29.61,23.91,23.91,0,0,1-6-5.56c-3.17-12.14-5.11-24.58-9.45-36.42a1.1,1.1,0,0,0-2.12.58c2.75,10.38,4.22,23.13,6.76,35.59a2,2,0,0,0,.3,1.54l0,.05c3.68,17.41,9.66,34,24.33,42.57-2.87.83-5.76,1.56-8.68,2.13C122,390.56,113.36,380,107,370.15c-7.08-10.95-14.68-26.46-11-39.82.45-1.61-1.88-2.18-2.45-.68-5.19,13.74,1.59,29.65,8.19,41.68,4.86,8.85,12.13,19.48,21.35,25.68a48.42,48.42,0,0,1-10.65-.57c-1.65-.28-2.39,2.16-.7,2.55a54,54,0,0,0,16.85,1,26.83,26.83,0,0,0,5.92,1.8,2.5,2.5,0,0,0,3-3.05c3.32-.65,6.61-1.46,9.85-2.36.72.28,1.44.55,2.19.8a2.83,2.83,0,0,0,3.62-2.5c1-.3,2-.63,2.94-.94a22,22,0,0,0,5.58.48,2.39,2.39,0,0,0,2.3-2.76,3.19,3.19,0,0,0,2.66.59,11.52,11.52,0,0,0,4.95-2.17,2.16,2.16,0,0,0,1-1.82c6.13-2.2,12.26-4.38,18.47-6.31a21.09,21.09,0,0,0,10.2,5.55C205.27,388.13,206.89,382.42,203,381.24ZM149.5,358.83a149.73,149.73,0,0,0,11.74,28.08l-3,1.11c-13.12-5.65-19.92-17.14-24.47-30.94a137.3,137.3,0,0,1-5.12-21.44A98.07,98.07,0,0,0,149.5,358.83Zm-15.66,19c-4.32-5.64-7.14-12.28-9.38-19a27.17,27.17,0,0,0,5.2,3c.07.23.14.47.22.7,2.76,8.45,7.62,18.52,14.8,25A42.53,42.53,0,0,1,133.84,377.83Z" transform="translate(-73.72 -36.52)"/><path class="cls-2" d="M265.61,387.21c16.15,12,37.72,18,57.18,21.83,15.45,3,31.46,4.2,47.13,5.78,5.68.57,23,3.73,27.66-2.42a194.15,194.15,0,0,0,20.17,7.32c20.75,6,45,6.24,63.85-5.34,7.54-4.62,11.57-11.26,12.33-20.06.46-5.38-1.36-11.51-5.44-15,1.51-.22,3-.46,4.54-.76,14.79-2.91,30.32-11.86,34.43-27.28a22.6,22.6,0,0,0-2.83-17.26c-3-4.95-7.43-7.55-12.44-9.32,6.27-1.31,12.7-3.34,17.24-7.85,5.14-5.11,5.79-14.58,6.39-21.35.7-7.77-.45-16.85-5.79-22.87,5.53-5,8.39-12.12,8.23-20.73-.18-9.54-4.13-20.64-12.06-26.48a1.43,1.43,0,0,0-.44-1c-8.66-8.55-21-11.55-32.68-13.41-6.29-1-12.77-1.21-18.92-2.87-7.08-1.92-13.5-6-20.69-7.87-14.41-3.8-29.83-2.94-44.52-1.76-13.46,1.08-28.49.32-40.58,7.16h0c-2.69-3.48-5.32-7-7.74-10.79-3.37-5.26-6.54-10.3-8.35-16.34a70.79,70.79,0,0,1-2-9.8c.24-1.79.44-3.58.5-5.38a2.43,2.43,0,0,0-.53-1.64A66.67,66.67,0,0,1,353,141.54c2.38-8,6.14-15.55,8.39-23.63,4.09-14.69,3-30.62,1-45.55-1.66-12.52-7.23-22.64-17.8-29.77-9.3-6.28-22-9.1-31.24-1.48a1,1,0,0,0-.33,1.21,1.16,1.16,0,0,0-.91,1.22c.43,12-2.52,24.14-3.29,36.12-.92,14.26-2.53,28.29-7.5,41.77-4.45,12.06-11.51,23.1-18.18,34-6,9.82-13.28,20.45-16.37,31.66-6.21,8.91-8.85,21.32-11.54,31.49-.62,2.34-1.19,4.67-1.75,7A81.47,81.47,0,0,0,243.1,227c-2.15.36-4.59.68-7.05,1.13-1.32-11.63-21.81-6.49-29.67-5.57-6.75.78-13.67.72-20.35,2-1.82-11.66-30.13-9.74-37.34-9.46-9.89.37-19.66,1.48-29.58,1.53-8,0-16-.2-24,.07-6.19.21-13.06-1.51-19.1-.4-2.53.47-3.17,4.62-.74,5.68,4.15,1.82,9.28,1.5,13.75,1.68,6.81.26,13.67-.21,20.49-.24,10.89,0,21.65-.46,32.49-1.41a184.28,184.28,0,0,1,22.48-.79c5.33.19,13.25.19,17.38,4.33-1,.28-2,.6-2.93,1-9.55,3.65-14.4,12.34-18,21.37-9.22,22.92-11.3,48.41-8.75,72.84A135.53,135.53,0,0,0,159.51,352c3.41,9.62,7.53,22.78,15.05,30a3.3,3.3,0,0,0,2.37.89,3,3,0,0,0-.06.91c.52,6,7.78,7.64,15.14,7.83a11.54,11.54,0,0,1,.31,1.91c-16.39,2.42-32.93,3.21-49.36,6-17.5,3-35,5.84-52.69,7.71a3.49,3.49,0,0,0,0,7c8.17.65,16.41-1,24.45-2.39,9.28-1.59,18.56-3.17,27.82-4.82,10.5-1.86,20.95-4,31.56-5.15,7.34-.77,15.85-.12,22-4.88a2.18,2.18,0,0,0,.57-2.14,14.31,14.31,0,0,0-1.07-3.23c4.28-.12,8.22-.57,10.41-.75,11.39-.92,26.85-1.79,36.69-8.32a2.44,2.44,0,0,0,1.1-2.71c-.12-.39-.22-.78-.32-1.16l.56.09c2.79.47,8.75,2,12,.45A83.29,83.29,0,0,0,265.61,387.21Zm253.76-33.49c-6.55,13.48-24.2,18.08-37.79,19.24-14.94,1.27-30-1.21-44.9-2.5a104.08,104.08,0,0,1-18.32-2.94,37.15,37.15,0,0,1-4.23-1.43c-.35-3.46-.72-6.91-1.19-10.37-.16-1.17-2.09-1.12-2.31,0a34.89,34.89,0,0,0-.63,8.42,61.84,61.84,0,0,1-8.2-5.46,2.83,2.83,0,0,0-1-1.49c-.33-.28-.67-.55-1-.81a2.4,2.4,0,0,0-.12-.77c-1.4-4.15-2.89-7.66-2.74-12.15.15-4.2,2-8.25,3.32-12.18.31-1-1.1-1.87-1.77-1-4.67,5.92-7.37,14.1-5.63,21.5a34.52,34.52,0,0,1-2.85-2.1,38.47,38.47,0,0,1-9.24-11.59c-3.72-7-3.5-17,3.76-18.87a43.87,43.87,0,0,0,5.93,4.18C400.72,331,416,332.55,428,333.9c17.41,2,34.43-.16,51.6-3.28q14.2-2.58,28.4-5.1l.61-.11C518.18,331.83,524.87,342.39,519.36,353.72Zm10.42-58.17c-.84,7.19-1.65,15.68-8.55,19.55-6.13,3.44-14.07,4.17-20.89,5.26-8.86,1.41-17.66,3.21-26.5,4.76-14.79,2.58-29.3,3.79-44.24,2.38-3-.28-6.35-.59-9.82-1-1.09-2.8-2.76-5.38-3.81-8.22a29.92,29.92,0,0,1-1.59-13.54.92.92,0,0,0-1.71-.46,24.94,24.94,0,0,0,.35,21.16c-1.59-.3-3.16-.65-4.72-1.06A2.52,2.52,0,0,0,407,322.8c-2.46-1.28-4.92-2.42-7.34-3.59a2.41,2.41,0,0,0,.21-1.36c-.73-5.09-2.72-9.43-2.73-14.84a57,57,0,0,1,2.22-15.35c.2-.73-.82-1.43-1.34-.78-3.64,4.51-4.77,10.49-5.35,16.13-.36,3.5-.59,9,1,13a39.07,39.07,0,0,1-6.52-4.77c-5.75-5.27-11.16-13.89-11.53-21.85-.56-12.36,19.94-13.08,29.16-12.51a18.19,18.19,0,0,0,7.52,5.39,2.93,2.93,0,0,0,.5.37c16,9.51,37.71,5.35,55.19,3.44,9.51-1,19-2.55,28.49-3.55,7.43-.78,14.86-1.58,22-3.71a30.28,30.28,0,0,0,9.46-4.6A51.74,51.74,0,0,1,529.79,295.54Zm-337.7,88.57c-3.27-.17-6.91-.36-9.31-2.76a3.36,3.36,0,0,0-2.41-.94,3,3,0,0,0-.12-1.72c-3.05-8.59-8.52-16.45-11.92-25a136,136,0,0,1-7.74-26.44A154.67,154.67,0,0,1,162.81,265c2.26-9.42,5.42-20.6,12.13-27.86,5.7-6.17,15.2-6.61,23-7.25,6.5-.53,12.76-1.47,19.15-2.63,4.68-.84,12.58-2.42,15.8,1.56-3.6.87-7,2.19-9.45,4.5-.1.09-.17.19-.25.28-3.55,2.43-5.82,6.1-7.51,10.51-3.49,9.1-5.35,19.16-7.68,28.6a138.53,138.53,0,0,0-3.54,45.39c1.09,12.87,3.23,25.9,7.65,38.07,3.22,8.85,9.07,20.63,19.6,21.79a2.74,2.74,0,0,0,2.61-1.17,19.9,19.9,0,0,0,4.9,1.31c0,.23,0,.47-.06.72-9,3.25-19.63,3.92-29,4.8A122.82,122.82,0,0,1,192.09,384.12Zm53.57-11.23c-3.66-1-8.75-3.88-12.32-3.13a2.76,2.76,0,0,0-1.52.94c-16.28-10.26-18.41-36.48-20-53.84a130.12,130.12,0,0,1,2.05-37.68c1.77-9,4.09-17.88,5.92-26.87,1-4.87,2.18-9.68,4.65-13.81a3.76,3.76,0,0,0,3,.07c7.74-3.27,15.8-5.11,23.9-7.32l.94-.28a142.17,142.17,0,0,0-3.21,25.85c-.18,7.34.89,14.44,2,21.69.6,4,1.13,8.11,1.55,12.18.14,1.32.69,5.16.18,6s.36,1.7,1.22,1.58c6.32-.91,1.22-28.86.95-33.42-.75-12.73,2.12-25.88,5.25-38.13,1.62-6.33,3.24-12.66,5.15-18.91,1.72-5.63,4.28-11,6.18-16.61a3,3,0,0,0,1.11-1.17c5.93-10.94,11.17-22.07,17.58-32.8,6.55-11,12.87-22,17.41-34A101.44,101.44,0,0,0,313,100.82a2.36,2.36,0,0,0,.28-.24c4.81-5,6.31-11.53,7-18.28.79-7.85.76-16.1.94-24,0-.81-1.23-1.22-1.59-.43-2.36,5.1-2.64,11-3.06,16.52a61,61,0,0,1-2.22,12.91q.18-2.67.33-5.33c.7-12.5,4-26.66.07-38.79,0,0,0,0,0-.08l.17-.06c11.92-5.66,24.72,1.07,33.1,9.76,9,9.3,9.12,24,9.71,36a91.65,91.65,0,0,1-7.14,40.07c-4.16,10.23-8.54,22.16-7.18,33.48a3,3,0,0,0-.1.53,37.27,37.27,0,0,0,.4,9.39q-.51,3.54-.93,7.09c-.83,7.08.34,14.11,1.17,21.13a285.65,285.65,0,0,0,6.88,38.29c.16.63,1.2.51,1.15-.16-1-12.7-1.81-25.42-2.64-38.14-.29-4.42-.68-8.87-.78-13.31a79.6,79.6,0,0,0,5.27,9.35c5.74,8.77,12.21,20.73,22.84,24.19,1.18.38,2.47-1.12,1.68-2.19-1.91-2.6-3.88-5.13-5.86-7.65,11.68-5.58,26.17-4.81,38.81-5.84,14.23-1.16,28.51-1.92,42.47,1.67,5.95,1.53,11.18,4.64,16.93,6.6,5.21,1.77,10.53,2.07,16,2.62,13.09,1.32,25.93,3.86,37.23,10.89a1.51,1.51,0,0,0,.48.19c7.12,7.13,10,17.88,9.48,27.78-.79,14.46-14.26,18.95-26.53,20.92-13.73,2.21-27.8,3.63-41.61,5.32-10.66,1.3-22.88,3.16-34.22,1.86-1.92-2.48-4.52-4.43-5.95-7.27-.33-.66-1.28-.3-1.31.35-.1,2.44,1.11,4.39,2.59,6.18a41.79,41.79,0,0,1-9.08-2.9,3,3,0,0,0-1.68-1.79c-3.64-1.51-7-3.77-10.89-4.75,0,0,0,0,0-.08-.45-1.93-1.82-3.66-2.54-5.53a37.79,37.79,0,0,1-1.92-7.76c-.89-5.65-.54-11.18,4.94-13.93a.81.81,0,0,0-.19-1.46c-10.83-3-11.06,19.07-5.94,27.78a39.36,39.36,0,0,0-6.23-.65,2,2,0,0,0-.49-.64c-4.39-3.81-9-6.72-10.52-12.71-1.59-6.42,3.57-12.58,8.23-16.17,11.42-8.8,26.32-7.81,39.59-5h0a42.63,42.63,0,0,0-3.15,3.23c-2.35,2.64-4.2,6.24-3.29,9.84a.69.69,0,0,0,1.25.16,27.88,27.88,0,0,1,6.27-7c2.56-2.23,5.82-3.68,8.13-6.15a2.5,2.5,0,0,0,.64-1.22c5.42-2.56,11.54-3.35,17.54-4.55,13-2.6,26-3.1,39.09-4.95a1.16,1.16,0,0,0,0-2.23c-13.91-1.9-28-.26-41.71,2-6.47,1.05-19.32,1.45-23.63,7.85-14.69-9.68-36.47-5.17-48.56,6.72-9.22,9.07-8.44,25.38,2.45,31.51-7.82,1.6-14.61,6-16.54,14.16-2.21,9.35,4.39,20,9.88,27,.51.65,1.06,1.29,1.63,1.92-5.32,1.77-8.58,8-8.59,15.28,0,6.79,3.63,13.76,7.84,18.87,3.64,4.41,8.9,9.92,14.68,12.31,10.07,11.73,26.36,15,41.17,16.37,15.86,1.43,31.89,3.66,47.77,2.28,4.84,4.75,5.77,10.8,3.87,17.52-2.24,7.95-10.25,12-17.43,14.69-16.24,6.15-34.95,4.24-51.26-.5a100.41,100.41,0,0,1-10.86-4,22.35,22.35,0,0,1-.49-3.68A17.94,17.94,0,0,1,410,393.31c.75-1.07-.84-2.12-1.72-1.33a22.07,22.07,0,0,0-6.85,13.23c-1.58-.66-3.16-1.3-4.77-1.9a26.85,26.85,0,0,1-10.26-6.17q-1-.93-1.91-1.86a1.61,1.61,0,0,0,1.05-1.14c1.25-4.22,1.41-8.39,3.39-12.44,1.8-3.68,4.62-6.81,7-10.11.65-.9-.68-1.67-1.41-1.09-6.57,5.17-12.73,13.56-12.38,22.36-3.75-4.05-6.8-8.43-8.32-14.07-2.32-8.62,2.49-14.32,9.24-18.89a3,3,0,0,0-2.33-5.54c-20.56,4.37-16.88,28.59-6.94,41.18,4.29,5.43,10.08,11.13,16.57,13.83l2.93,1.22c-8.21.94-17.7-1.36-25.35-2.59-13.56-2.17-27.26-3.58-40.74-6.17-17.48-3.36-35-8.54-50.57-17.36-6.8-3.86-13.67-8.9-18.17-15.4-3.83-5.53-4.93-12.64-7.29-18.83-1-2.71-5.43-2.53-5.33.72.21,6.9,1.13,13.56,4.14,19.84a26.16,26.16,0,0,0,2.08,3.56C249.85,373.85,247.62,373.44,245.66,372.88Z" transform="translate(-73.72 -36.52)"/><path class="cls-2" d="M287.61,319c9.77-3.19,19.49-6.07,28.56-11,8.87-4.83,16.58-12.07,23.52-19.3a102.34,102.34,0,0,0,17.23-25.06,78.33,78.33,0,0,0,5.91-15c1.31-4.92.43-10.41.21-15.4a2.83,2.83,0,0,0-5.67,0c-.35,4.6.32,9.22-.34,13.8-.77,5.33-3.71,11-5.87,15.82a96.31,96.31,0,0,1-15.88,24.53,91.56,91.56,0,0,1-22.75,18.78c-8.06,4.65-17.18,7.28-25.53,11.39A.8.8,0,0,0,287.61,319Z" transform="translate(-73.72 -36.52)"/></svg>